<svg width="64" height="64" viewBox="0 0 64 64" fill="none" xmlns="http://www.w3.org/2000/svg">
<rect width="64" height="64" rx="18.6667" fill="#FFF4EE"/>
<path fill-rule="evenodd" clip-rule="evenodd" d="M26.7248 10C24.3528 10.0018 22.433 11.9269 22.4348 14.2991C22.433 16.6714 24.3545 18.5965 26.7266 18.5983H31.0184V14.3009C31.0201 11.9286 29.0986 10.0035 26.7248 10C26.7266 10 26.7266 10 26.7248 10V10ZM26.7248 21.4667H15.2835C12.9115 21.4684 10.99 23.3936 10.9917 25.7658C10.9882 28.138 12.9097 30.0632 15.2818 30.0667H26.7248C29.0969 30.0649 31.0184 28.1398 31.0166 25.7676C31.0184 23.3936 29.0969 21.4684 26.7248 21.4667Z" fill="#36C5F0"/>
<path fill-rule="evenodd" clip-rule="evenodd" d="M53.9028 25.7658C53.9045 23.3936 51.983 21.4684 49.611 21.4667C47.2389 21.4684 45.3174 23.3936 45.3191 25.7658V30.0667H49.611C51.983 30.0649 53.9045 28.1398 53.9028 25.7658ZM42.4597 25.7658V14.2991C42.4615 11.9286 40.5417 10.0035 38.1696 10C35.7976 10.0018 33.8761 11.9269 33.8778 14.2991V25.7658C33.8743 28.138 35.7958 30.0632 38.1679 30.0667C40.54 30.0649 42.4615 28.1398 42.4597 25.7658Z" fill="#2EB67D"/>
<path fill-rule="evenodd" clip-rule="evenodd" d="M38.1678 53C40.5399 52.9983 42.4614 51.0731 42.4596 48.7009C42.4614 46.3287 40.5399 44.4035 38.1678 44.4018H33.876V48.7009C33.8743 51.0714 35.7958 52.9965 38.1678 53ZM38.1678 41.5316H49.6109C51.983 41.5298 53.9044 39.6047 53.9027 37.2325C53.9062 34.8602 51.9847 32.9351 49.6126 32.9316H38.1696C35.7975 32.9333 33.876 34.8585 33.8778 37.2307C33.876 39.6047 35.7958 41.5298 38.1678 41.5316Z" fill="#ECB22E"/>
<path fill-rule="evenodd" clip-rule="evenodd" d="M10.9917 37.2325C10.99 39.6047 12.9115 41.5299 15.2835 41.5316C17.6556 41.5299 19.5771 39.6047 19.5753 37.2325V32.9333H15.2835C12.9115 32.9351 10.99 34.8602 10.9917 37.2325ZM22.4348 37.2325V48.6992C22.4313 51.0714 24.3528 52.9965 26.7248 53C29.0969 52.9983 31.0184 51.0731 31.0166 48.7009V37.236C31.0201 34.8637 29.0986 32.9386 26.7266 32.9351C24.3528 32.9351 22.433 34.8602 22.4348 37.2325C22.4348 37.2342 22.4348 37.2325 22.4348 37.2325Z" fill="#E01E5A"/>
</svg>
