<svg width="25" height="24" viewBox="0 0 25 24" fill="none" xmlns="http://www.w3.org/2000/svg">
<path d="M5.19678 3.5V16C5.19678 17.655 6.54178 19 8.19678 19H18.4168" stroke="#65676D" stroke-width="2" stroke-miterlimit="10"/>
<path d="M18.4167 10.5H5.16675" stroke="#65676D" stroke-width="2" stroke-miterlimit="10"/>
<path d="M18.6667 12.5C19.7713 12.5 20.6667 11.6046 20.6667 10.5C20.6667 9.39543 19.7713 8.5 18.6667 8.5C17.5622 8.5 16.6667 9.39543 16.6667 10.5C16.6667 11.6046 17.5622 12.5 18.6667 12.5Z" fill="#65676D"/>
<path d="M18.6667 21C19.7713 21 20.6667 20.1046 20.6667 19C20.6667 17.8954 19.7713 17 18.6667 17C17.5622 17 16.6667 17.8954 16.6667 19C16.6667 20.1046 17.5622 21 18.6667 21Z" fill="#65676D"/>
</svg>
