<svg width="36" height="36" viewBox="0 0 36 36" fill="none" xmlns="http://www.w3.org/2000/svg">
<path d="M20.0775 33H15.915C14.91 33 14.0925 32.1825 14.0925 31.185V28.845C13.7475 28.725 13.41 28.5825 13.08 28.425L11.43 30.075C10.7175 30.7875 9.57 30.78 8.8575 30.075L5.925 27.135C5.22 26.4225 5.22 25.275 5.925 24.5625L7.575 22.9125C7.4175 22.5825 7.2825 22.245 7.155 21.9H4.815C3.8175 21.9 3 21.0825 3 20.0775V15.915C3 14.91 3.8175 14.0925 4.815 14.0925H7.155C7.275 13.7475 7.4175 13.41 7.575 13.08L5.925 11.43C5.22 10.7175 5.22 9.57 5.925 8.8575L8.865 5.925C9.5775 5.22 10.725 5.22 11.4375 5.925L13.0875 7.575C13.4175 7.4175 13.755 7.2825 14.1 7.155V4.815C14.1 3.8175 14.9175 3 15.9225 3H20.085C21.09 3 21.9075 3.8175 21.9075 4.815V7.155C22.2525 7.275 22.59 7.4175 22.92 7.575L24.57 5.925C25.275 5.22 26.43 5.22 27.1425 5.925L30.09 8.8725C30.795 9.585 30.795 10.7325 30.09 11.445L28.44 13.095C28.5975 13.425 28.7325 13.7625 28.86 14.1075H31.2C32.205 14.1075 33.015 14.925 33.015 15.93V20.0925C33.015 21.0975 32.1975 21.915 31.2 21.915H28.86C28.74 22.26 28.5975 22.5975 28.44 22.9275L30.09 24.5775C30.795 25.29 30.795 26.4375 30.09 27.15L27.1425 30.09C26.43 30.8025 25.2825 30.8025 24.57 30.09L22.92 28.44C22.59 28.5975 22.2525 28.7325 21.9075 28.86V31.2C21.9 32.1825 21.0825 33 20.0775 33ZM16.35 30.75H19.65V28.53C19.65 27.7425 20.16 27.0525 20.91 26.805C21.345 26.6625 21.765 26.49 22.17 26.2875C22.8825 25.9275 23.73 26.0625 24.285 26.6175L25.8525 28.185L28.185 25.8525L26.6175 24.285C26.0625 23.73 25.9275 22.8825 26.2875 22.17C26.49 21.765 26.6625 21.345 26.805 20.91C27.0525 20.1525 27.75 19.65 28.53 19.65H30.75V16.35H28.53C27.7425 16.35 27.0525 15.84 26.805 15.09C26.6625 14.655 26.49 14.235 26.2875 13.83C25.9275 13.1175 26.0625 12.27 26.6175 11.715L28.185 10.1475L25.8525 7.815L24.285 9.3825C23.73 9.9375 22.8825 10.0725 22.17 9.7125C21.765 9.51 21.345 9.3375 20.91 9.195C20.16 8.9475 19.65 8.25 19.65 7.47V5.25H16.35V7.47C16.35 8.2575 15.84 8.9475 15.09 9.195C14.655 9.3375 14.235 9.51 13.83 9.7125C13.1175 10.0725 12.27 9.9375 11.715 9.3825L10.1475 7.815L7.815 10.1475L9.3825 11.715C9.9375 12.27 10.0725 13.1175 9.7125 13.83C9.51 14.235 9.3375 14.655 9.195 15.09C8.9475 15.84 8.25 16.35 7.47 16.35H5.25V19.65H7.47C8.2575 19.65 8.9475 20.16 9.195 20.91C9.3375 21.345 9.51 21.765 9.7125 22.17C10.0725 22.8825 9.9375 23.73 9.3825 24.285L7.815 25.8525L10.1475 28.185L11.715 26.6175C12.27 26.0625 13.1175 25.9275 13.83 26.2875C14.235 26.49 14.655 26.6625 15.0825 26.805C15.84 27.0525 16.3425 27.75 16.3425 28.53V30.75H16.35ZM18 23.985C14.7 23.985 12.015 21.3 12.015 18C12.015 14.7 14.7 12.015 18 12.015C21.3 12.015 23.985 14.7 23.985 18C23.985 21.3 21.3 23.985 18 23.985ZM18 14.265C15.945 14.265 14.265 15.9375 14.265 18C14.265 20.0625 15.9375 21.735 18 21.735C20.0625 21.735 21.735 20.0625 21.735 18C21.735 15.9375 20.055 14.265 18 14.265Z" fill="#65676D"/>
</svg>
