<svg width="49" height="48" viewBox="0 0 49 48" fill="none" xmlns="http://www.w3.org/2000/svg">
<circle cx="24.3334" cy="24" r="20" stroke="#E1E1E1" stroke-width="2"/>
<path d="M23.1921 13.5125C23.5513 12.4069 25.1154 12.4069 25.4746 13.5125L27.2072 18.8446C27.3678 19.339 27.8286 19.6738 28.3484 19.6738H33.9549C35.1174 19.6738 35.6007 21.1613 34.6603 21.8446L30.1245 25.14C29.7039 25.4456 29.5279 25.9872 29.6886 26.4817L31.4211 31.8138C31.7803 32.9194 30.5149 33.8387 29.5745 33.1554L25.0387 29.86C24.6181 29.5544 24.0486 29.5544 23.628 29.86L19.0923 33.1554C18.1518 33.8387 16.8864 32.9193 17.2456 31.8138L18.9782 26.4817C19.1388 25.9872 18.9628 25.4456 18.5422 25.14L14.0065 21.8446C13.066 21.1613 13.5493 19.6738 14.7118 19.6738H20.3183C20.8382 19.6738 21.2989 19.339 21.4596 18.8446L23.1921 13.5125Z" fill="#FFA800"/>
</svg>
