<svg width="25" height="24" viewBox="0 0 25 24" fill="none" xmlns="http://www.w3.org/2000/svg">
<path d="M12.3346 21C16.3387 21 19.5846 17.7541 19.5846 13.75C19.5846 9.74594 16.3387 6.5 12.3346 6.5C8.33053 6.5 5.08459 9.74594 5.08459 13.75C5.08459 17.7541 8.33053 21 12.3346 21Z" stroke="#65676D" stroke-width="1.5" stroke-miterlimit="10"/>
<path d="M12.3346 13.75L12.3254 8.24878C12.33 8.24878 12.33 8.24878 12.3346 8.24878C15.3511 8.24878 17.8358 10.7335 17.8358 13.75C17.8358 16.7665 15.3511 19.2512 12.3346 19.2512C9.31808 19.2512 6.83796 16.7711 6.83337 13.7591L12.3346 13.75Z" fill="#65676D"/>
<path d="M8.33459 3.5H16.3346" stroke="#65676D" stroke-width="1.5" stroke-miterlimit="10"/>
<path d="M13.0846 3.5H11.5846V7H13.0846V3.5Z" fill="#65676D"/>
<path d="M5.39402 7.75002L4.33337 8.81067L5.92435 10.4016L6.985 9.34099L5.39402 7.75002Z" fill="#65676D"/>
<path d="M20.3345 8.91002L19.2739 7.84937L17.6829 9.44034L18.7435 10.501L20.3345 8.91002Z" fill="#65676D"/>
</svg>
